<svg width="260" height="300" viewBox="70 45 280 330" fill="none" xmlns="http://www.w3.org/2000/svg" role="img" aria-labelledby="title desc">
  <title id="title">Beryl logo</title>
  <desc id="desc">A faceted green gemstone mark for the Beryl repository.</desc>
  <defs>
    <linearGradient id="emerald" x1="92" y1="70" x2="330" y2="350" gradientUnits="userSpaceOnUse">
      <stop offset="0" stop-color="#9FF3D2"/>
      <stop offset="0.4" stop-color="#10B981"/>
      <stop offset="1" stop-color="#075E54"/>
    </linearGradient>
    <linearGradient id="edge" x1="116" y1="92" x2="304" y2="326" gradientUnits="userSpaceOnUse">
      <stop offset="0" stop-color="#ECFDF5"/>
      <stop offset="1" stop-color="#064E3B"/>
    </linearGradient>
    <filter id="shadow" x="55" y="49" width="310" height="330" filterUnits="userSpaceOnUse" color-interpolation-filters="sRGB">
      <feDropShadow dx="0" dy="18" stdDeviation="18" flood-color="#064E3B" flood-opacity="0.22"/>
    </filter>
  </defs>
  <g filter="url(#shadow)">
    <path d="M210 64L318 128L318 252L210 356L102 252L102 128L210 64Z" fill="url(#emerald)"/>
    <path d="M210 64L318 128L260 146L210 64Z" fill="#B9F8DE" fill-opacity="0.78"/>
    <path d="M210 64L160 146L102 128L210 64Z" fill="#6EE7B7" fill-opacity="0.86"/>
    <path d="M160 146L210 64L260 146L210 186L160 146Z" fill="#34D399"/>
    <path d="M102 128L160 146L138 250L102 252L102 128Z" fill="#059669"/>
    <path d="M318 128L260 146L282 250L318 252L318 128Z" fill="#047857"/>
    <path d="M160 146L210 186L138 250L160 146Z" fill="#10B981"/>
    <path d="M260 146L210 186L282 250L260 146Z" fill="#0F766E"/>
    <path d="M138 250L210 186L282 250L210 356L138 250Z" fill="#065F46"/>
    <path d="M102 252L138 250L210 356L102 252Z" fill="#047857"/>
    <path d="M318 252L282 250L210 356L318 252Z" fill="#064E3B"/>
    <path d="M210 64L318 128L318 252L210 356L102 252L102 128L210 64Z" stroke="url(#edge)" stroke-width="8" stroke-linejoin="round"/>
    <path d="M160 146L260 146M160 146L138 250M260 146L282 250M210 186L138 250M210 186L282 250M210 186L210 64M138 250L210 356M282 250L210 356" stroke="#ECFDF5" stroke-opacity="0.52" stroke-width="5" stroke-linecap="round" stroke-linejoin="round"/>
  </g>
</svg>
