<svg width="64" height="64" viewBox="0 0 64 64" fill="none" xmlns="http://www.w3.org/2000/svg" role="img" aria-labelledby="title desc">
  <title id="title">Beryl favicon</title>
  <desc id="desc">Beryl icon mark at favicon size.</desc>
  <g transform="translate(2 0) scale(0.16)">
    <path d="M210 64L318 128L318 252L210 356L102 252L102 128L210 64Z" fill="#10B981"/>
    <path d="M210 64L318 128L260 146L210 64Z" fill="#B9F8DE" fill-opacity="0.78"/>
    <path d="M210 64L160 146L102 128L210 64Z" fill="#6EE7B7" fill-opacity="0.86"/>
    <path d="M160 146L210 64L260 146L210 186L160 146Z" fill="#34D399"/>
    <path d="M102 128L160 146L138 250L102 252L102 128Z" fill="#059669"/>
    <path d="M318 128L260 146L282 250L318 252L318 128Z" fill="#047857"/>
    <path d="M160 146L210 186L138 250L160 146Z" fill="#10B981"/>
    <path d="M260 146L210 186L282 250L260 146Z" fill="#0F766E"/>
    <path d="M138 250L210 186L282 250L210 356L138 250Z" fill="#065F46"/>
    <path d="M102 252L138 250L210 356L102 252Z" fill="#047857"/>
    <path d="M318 252L282 250L210 356L318 252Z" fill="#064E3B"/>
  </g>
</svg>
